<?xml version="1.0" encoding="UTF-8" standalone="no"?>
<!DOCTYPE svg PUBLIC "-//W3C//DTD SVG 1.1//EN"
 "http://www.w3.org/Graphics/SVG/1.1/DTD/svg11.dtd">
<!-- Generated by graphviz version 2.47.3 (20210619.1520)
 -->
<!-- Title: dependencies Pages: 1 -->
<svg width="1992pt" height="247pt"
 viewBox="0.00 0.00 1992.00 246.80" xmlns="http://www.w3.org/2000/svg" xmlns:xlink="http://www.w3.org/1999/xlink">
<g id="graph0" class="graph" transform="scale(1 1) rotate(0) translate(4 242.8)">
<title>dependencies</title>
<polygon fill="white" stroke="transparent" points="-4,4 -4,-242.8 1988,-242.8 1988,4 -4,4"/>
<text text-anchor="middle" x="992" y="-8.2" font-family="sans-serif" font-size="14.00">dependencies</text>
<g id="clust1" class="cluster">
<title>cluster_AppModule</title>
<polygon fill="none" stroke="black" stroke-dasharray="1,5" points="8,-32.8 8,-230.8 1976,-230.8 1976,-32.8 8,-32.8"/>
</g>
<g id="clust2" class="cluster">
<title>cluster_AppModule_declarations</title>
<polygon fill="none" stroke="black" points="168,-40.8 168,-92.8 1968,-92.8 1968,-40.8 168,-40.8"/>
</g>
<g id="clust15" class="cluster">
<title>cluster_AppModule_imports</title>
<polygon fill="none" stroke="black" points="16,-40.8 16,-92.8 160,-92.8 160,-40.8 16,-40.8"/>
</g>
<g id="clust17" class="cluster">
<title>cluster_AppModule_bootstrap</title>
<polygon fill="none" stroke="black" points="898,-170.8 898,-222.8 1022,-222.8 1022,-170.8 898,-170.8"/>
</g>
<!-- AlertComponent -->
<g id="node1" class="node">
<title>AlertComponent</title>
<polygon fill="#ffffb3" stroke="black" points="1960.1,-84.8 1849.9,-84.8 1849.9,-48.8 1960.1,-48.8 1960.1,-84.8"/>
<text text-anchor="middle" x="1905" y="-62.6" font-family="Times,serif" font-size="14.00">AlertComponent</text>
</g>
<!-- AppModule -->
<g id="node13" class="node">
<title>AppModule</title>
<polygon fill="#8dd3c7" stroke="black" points="1001.66,-149.8 998.66,-153.8 977.66,-153.8 974.66,-149.8 918.34,-149.8 918.34,-113.8 1001.66,-113.8 1001.66,-149.8"/>
<text text-anchor="middle" x="960" y="-127.6" font-family="Times,serif" font-size="14.00">AppModule</text>
</g>
<!-- AlertComponent&#45;&gt;AppModule -->
<g id="edge1" class="edge">
<title>AlertComponent&#45;&gt;AppModule</title>
<path fill="none" stroke="black" d="M1905,-84.89C1905,-107.93 1905,-144.8 1905,-144.8 1905,-144.8 1011.82,-144.8 1011.82,-144.8"/>
<polygon fill="black" stroke="black" points="1011.82,-141.3 1001.82,-144.8 1011.82,-148.3 1011.82,-141.3"/>
</g>
<!-- AppComponent -->
<g id="node2" class="node">
<title>AppComponent</title>
<polygon fill="#ffffb3" stroke="black" points="1831.94,-84.8 1726.06,-84.8 1726.06,-48.8 1831.94,-48.8 1831.94,-84.8"/>
<text text-anchor="middle" x="1779" y="-62.6" font-family="Times,serif" font-size="14.00">AppComponent</text>
</g>
<!-- AppComponent&#45;&gt;AppModule -->
<g id="edge2" class="edge">
<title>AppComponent&#45;&gt;AppModule</title>
<path fill="none" stroke="black" d="M1779,-84.84C1779,-106.46 1779,-139.8 1779,-139.8 1779,-139.8 1011.74,-139.8 1011.74,-139.8"/>
<polygon fill="black" stroke="black" points="1011.74,-136.3 1001.74,-139.8 1011.74,-143.3 1011.74,-136.3"/>
</g>
<!-- EditPerfilComponent -->
<g id="node3" class="node">
<title>EditPerfilComponent</title>
<polygon fill="#ffffb3" stroke="black" points="1707.77,-84.8 1572.23,-84.8 1572.23,-48.8 1707.77,-48.8 1707.77,-84.8"/>
<text text-anchor="middle" x="1640" y="-62.6" font-family="Times,serif" font-size="14.00">EditPerfilComponent</text>
</g>
<!-- EditPerfilComponent&#45;&gt;AppModule -->
<g id="edge3" class="edge">
<title>EditPerfilComponent&#45;&gt;AppModule</title>
<path fill="none" stroke="black" d="M1640,-85.02C1640,-105.17 1640,-134.8 1640,-134.8 1640,-134.8 1011.77,-134.8 1011.77,-134.8"/>
<polygon fill="black" stroke="black" points="1011.77,-131.3 1001.77,-134.8 1011.77,-138.3 1011.77,-131.3"/>
</g>
<!-- FooterComponent -->
<g id="node4" class="node">
<title>FooterComponent</title>
<polygon fill="#ffffb3" stroke="black" points="1553.88,-84.8 1436.12,-84.8 1436.12,-48.8 1553.88,-48.8 1553.88,-84.8"/>
<text text-anchor="middle" x="1495" y="-62.6" font-family="Times,serif" font-size="14.00">FooterComponent</text>
</g>
<!-- FooterComponent&#45;&gt;AppModule -->
<g id="edge4" class="edge">
<title>FooterComponent&#45;&gt;AppModule</title>
<path fill="none" stroke="black" d="M1495,-85.02C1495,-103.63 1495,-129.8 1495,-129.8 1495,-129.8 1011.98,-129.8 1011.98,-129.8"/>
<polygon fill="black" stroke="black" points="1011.98,-126.3 1001.98,-129.8 1011.98,-133.3 1011.98,-126.3"/>
</g>
<!-- HomePageComponent -->
<g id="node5" class="node">
<title>HomePageComponent</title>
<polygon fill="#ffffb3" stroke="black" points="1418.26,-84.8 1275.74,-84.8 1275.74,-48.8 1418.26,-48.8 1418.26,-84.8"/>
<text text-anchor="middle" x="1347" y="-62.6" font-family="Times,serif" font-size="14.00">HomePageComponent</text>
</g>
<!-- HomePageComponent&#45;&gt;AppModule -->
<g id="edge5" class="edge">
<title>HomePageComponent&#45;&gt;AppModule</title>
<path fill="none" stroke="black" d="M1347,-84.83C1347,-101.86 1347,-124.8 1347,-124.8 1347,-124.8 1011.78,-124.8 1011.78,-124.8"/>
<polygon fill="black" stroke="black" points="1011.78,-121.3 1001.78,-124.8 1011.78,-128.3 1011.78,-121.3"/>
</g>
<!-- LoginPageComponent -->
<g id="node6" class="node">
<title>LoginPageComponent</title>
<polygon fill="#ffffb3" stroke="black" points="1257.99,-84.8 1116.01,-84.8 1116.01,-48.8 1257.99,-48.8 1257.99,-84.8"/>
<text text-anchor="middle" x="1187" y="-62.6" font-family="Times,serif" font-size="14.00">LoginPageComponent</text>
</g>
<!-- LoginPageComponent&#45;&gt;AppModule -->
<g id="edge6" class="edge">
<title>LoginPageComponent&#45;&gt;AppModule</title>
<path fill="none" stroke="black" d="M1187,-85.04C1187,-100.37 1187,-119.8 1187,-119.8 1187,-119.8 1011.9,-119.8 1011.9,-119.8"/>
<polygon fill="black" stroke="black" points="1011.9,-116.3 1001.9,-119.8 1011.9,-123.3 1011.9,-116.3"/>
</g>
<!-- NavbarComponent -->
<g id="node7" class="node">
<title>NavbarComponent</title>
<polygon fill="#ffffb3" stroke="black" points="1098.03,-84.8 975.97,-84.8 975.97,-48.8 1098.03,-48.8 1098.03,-84.8"/>
<text text-anchor="middle" x="1037" y="-62.6" font-family="Times,serif" font-size="14.00">NavbarComponent</text>
</g>
<!-- NavbarComponent&#45;&gt;AppModule -->
<g id="edge7" class="edge">
<title>NavbarComponent&#45;&gt;AppModule</title>
<path fill="none" stroke="black" d="M988.78,-84.91C988.78,-84.91 988.78,-103.79 988.78,-103.79"/>
<polygon fill="black" stroke="black" points="985.28,-103.79 988.78,-113.79 992.28,-103.79 985.28,-103.79"/>
</g>
<!-- ProfilePageComponent -->
<g id="node8" class="node">
<title>ProfilePageComponent</title>
<polygon fill="#ffffb3" stroke="black" points="957.14,-84.8 810.86,-84.8 810.86,-48.8 957.14,-48.8 957.14,-84.8"/>
<text text-anchor="middle" x="884" y="-62.6" font-family="Times,serif" font-size="14.00">ProfilePageComponent</text>
</g>
<!-- ProfilePageComponent&#45;&gt;AppModule -->
<g id="edge8" class="edge">
<title>ProfilePageComponent&#45;&gt;AppModule</title>
<path fill="none" stroke="black" d="M937.75,-84.91C937.75,-84.91 937.75,-103.79 937.75,-103.79"/>
<polygon fill="black" stroke="black" points="934.25,-103.79 937.75,-113.79 941.25,-103.79 934.25,-103.79"/>
</g>
<!-- SignupPageComponent -->
<g id="node9" class="node">
<title>SignupPageComponent</title>
<polygon fill="#ffffb3" stroke="black" points="793.22,-84.8 644.78,-84.8 644.78,-48.8 793.22,-48.8 793.22,-84.8"/>
<text text-anchor="middle" x="719" y="-62.6" font-family="Times,serif" font-size="14.00">SignupPageComponent</text>
</g>
<!-- SignupPageComponent&#45;&gt;AppModule -->
<g id="edge9" class="edge">
<title>SignupPageComponent&#45;&gt;AppModule</title>
<path fill="none" stroke="black" d="M719,-85.04C719,-100.37 719,-119.8 719,-119.8 719,-119.8 908.3,-119.8 908.3,-119.8"/>
<polygon fill="black" stroke="black" points="908.3,-123.3 918.3,-119.8 908.3,-116.3 908.3,-123.3"/>
</g>
<!-- SobreNosComponent -->
<g id="node10" class="node">
<title>SobreNosComponent</title>
<polygon fill="#ffffb3" stroke="black" points="627.04,-84.8 490.96,-84.8 490.96,-48.8 627.04,-48.8 627.04,-84.8"/>
<text text-anchor="middle" x="559" y="-62.6" font-family="Times,serif" font-size="14.00">SobreNosComponent</text>
</g>
<!-- SobreNosComponent&#45;&gt;AppModule -->
<g id="edge10" class="edge">
<title>SobreNosComponent&#45;&gt;AppModule</title>
<path fill="none" stroke="black" d="M559,-84.83C559,-101.86 559,-124.8 559,-124.8 559,-124.8 908.22,-124.8 908.22,-124.8"/>
<polygon fill="black" stroke="black" points="908.22,-128.3 918.22,-124.8 908.22,-121.3 908.22,-128.3"/>
</g>
<!-- TermoComponent -->
<g id="node11" class="node">
<title>TermoComponent</title>
<polygon fill="#ffffb3" stroke="black" points="472.15,-84.8 353.85,-84.8 353.85,-48.8 472.15,-48.8 472.15,-84.8"/>
<text text-anchor="middle" x="413" y="-62.6" font-family="Times,serif" font-size="14.00">TermoComponent</text>
</g>
<!-- TermoComponent&#45;&gt;AppModule -->
<g id="edge11" class="edge">
<title>TermoComponent&#45;&gt;AppModule</title>
<path fill="none" stroke="black" d="M413,-85.02C413,-103.63 413,-129.8 413,-129.8 413,-129.8 907.99,-129.8 907.99,-129.8"/>
<polygon fill="black" stroke="black" points="907.99,-133.3 917.99,-129.8 907.99,-126.3 907.99,-133.3"/>
</g>
<!-- VisitedProfileComponent -->
<g id="node12" class="node">
<title>VisitedProfileComponent</title>
<polygon fill="#ffffb3" stroke="black" points="335.87,-84.8 176.13,-84.8 176.13,-48.8 335.87,-48.8 335.87,-84.8"/>
<text text-anchor="middle" x="256" y="-62.6" font-family="Times,serif" font-size="14.00">VisitedProfileComponent</text>
</g>
<!-- VisitedProfileComponent&#45;&gt;AppModule -->
<g id="edge12" class="edge">
<title>VisitedProfileComponent&#45;&gt;AppModule</title>
<path fill="none" stroke="black" d="M282.64,-85.02C282.64,-105.17 282.64,-134.8 282.64,-134.8 282.64,-134.8 908.14,-134.8 908.14,-134.8"/>
<polygon fill="black" stroke="black" points="908.14,-138.3 918.14,-134.8 908.14,-131.3 908.14,-138.3"/>
</g>
<!-- VisitedProfileComponent&#45;&gt;AppModule -->
<g id="edge13" class="edge">
<title>VisitedProfileComponent&#45;&gt;AppModule</title>
<path fill="none" stroke="black" d="M229.36,-84.84C229.36,-106.46 229.36,-139.8 229.36,-139.8 229.36,-139.8 908.09,-139.8 908.09,-139.8"/>
<polygon fill="black" stroke="black" points="908.09,-143.3 918.09,-139.8 908.09,-136.3 908.09,-143.3"/>
</g>
<!-- AppComponent  -->
<g id="node15" class="node">
<title>AppComponent </title>
<polygon fill="#80b1d3" stroke="black" points="1014.44,-214.8 905.56,-214.8 905.56,-178.8 1014.44,-178.8 1014.44,-214.8"/>
<text text-anchor="middle" x="960" y="-192.6" font-family="Times,serif" font-size="14.00">AppComponent </text>
</g>
<!-- AppModule&#45;&gt;AppComponent  -->
<g id="edge15" class="edge">
<title>AppModule&#45;&gt;AppComponent </title>
<path fill="none" stroke="black" stroke-dasharray="1,5" d="M960,-149.91C960,-149.91 960,-168.79 960,-168.79"/>
<polygon fill="black" stroke="black" points="956.5,-168.79 960,-178.79 963.5,-168.79 956.5,-168.79"/>
</g>
<!-- AppRoutingModule -->
<g id="node14" class="node">
<title>AppRoutingModule</title>
<polygon fill="#8dd3c7" stroke="black" points="152.27,-84.8 149.27,-88.8 128.27,-88.8 125.27,-84.8 23.73,-84.8 23.73,-48.8 152.27,-48.8 152.27,-84.8"/>
<text text-anchor="middle" x="88" y="-62.6" font-family="Times,serif" font-size="14.00">AppRoutingModule</text>
</g>
<!-- AppRoutingModule&#45;&gt;AppModule -->
<g id="edge14" class="edge">
<title>AppRoutingModule&#45;&gt;AppModule</title>
<path fill="none" stroke="black" d="M88,-84.89C88,-107.93 88,-144.8 88,-144.8 88,-144.8 908.24,-144.8 908.24,-144.8"/>
<polygon fill="black" stroke="black" points="908.24,-148.3 918.24,-144.8 908.24,-141.3 908.24,-148.3"/>
</g>
</g>
</svg>
