<?xml version="1.0" encoding="UTF-8" standalone="no"?>
<!DOCTYPE svg PUBLIC "-//W3C//DTD SVG 1.1//EN"
 "http://www.w3.org/Graphics/SVG/1.1/DTD/svg11.dtd">
<!-- Generated by graphviz version 2.47.3 (20210619.1520)
 -->
<!-- Title: dependencies Pages: 1 -->
<svg width="1992pt" height="247pt"
 viewBox="0.00 0.00 1992.00 246.80" xmlns="http://www.w3.org/2000/svg" xmlns:xlink="http://www.w3.org/1999/xlink">
<g id="graph0" class="graph" transform="scale(1 1) rotate(0) translate(4 242.8)">
<title>dependencies</title>
<polygon fill="white" stroke="transparent" points="-4,4 -4,-242.8 1988,-242.8 1988,4 -4,4"/>
<text text-anchor="middle" x="992" y="-8.2" font-family="sans-serif" font-size="14.00">dependencies</text>
<g id="clust1" class="cluster">
<title>cluster_AppModule</title>
<polygon fill="none" stroke="black" stroke-dasharray="1,5" points="8,-32.8 8,-230.8 1976,-230.8 1976,-32.8 8,-32.8"/>
</g>
<g id="clust15" class="cluster">
<title>cluster_AppModule_imports</title>
<polygon fill="none" stroke="black" points="1824,-40.8 1824,-92.8 1968,-92.8 1968,-40.8 1824,-40.8"/>
</g>
<g id="clust17" class="cluster">
<title>cluster_AppModule_bootstrap</title>
<polygon fill="none" stroke="black" points="898,-170.8 898,-222.8 1022,-222.8 1022,-170.8 898,-170.8"/>
</g>
<g id="clust2" class="cluster">
<title>cluster_AppModule_declarations</title>
<polygon fill="none" stroke="black" points="16,-40.8 16,-92.8 1816,-92.8 1816,-40.8 16,-40.8"/>
</g>
<!-- AlertComponent -->
<g id="node1" class="node">
<title>AlertComponent</title>
<polygon fill="#ffffb3" stroke="black" points="1808.1,-84.8 1697.9,-84.8 1697.9,-48.8 1808.1,-48.8 1808.1,-84.8"/>
<text text-anchor="middle" x="1753" y="-62.6" font-family="Times,serif" font-size="14.00">AlertComponent</text>
</g>
<!-- AppModule -->
<g id="node13" class="node">
<title>AppModule</title>
<polygon fill="#8dd3c7" stroke="black" points="1001.66,-149.8 998.66,-153.8 977.66,-153.8 974.66,-149.8 918.34,-149.8 918.34,-113.8 1001.66,-113.8 1001.66,-149.8"/>
<text text-anchor="middle" x="960" y="-127.6" font-family="Times,serif" font-size="14.00">AppModule</text>
</g>
<!-- AlertComponent&#45;&gt;AppModule -->
<g id="edge1" class="edge">
<title>AlertComponent&#45;&gt;AppModule</title>
<path fill="none" stroke="black" d="M1753,-84.84C1753,-106.46 1753,-139.8 1753,-139.8 1753,-139.8 1011.8,-139.8 1011.8,-139.8"/>
<polygon fill="black" stroke="black" points="1011.8,-136.3 1001.8,-139.8 1011.8,-143.3 1011.8,-136.3"/>
</g>
<!-- AppComponent -->
<g id="node2" class="node">
<title>AppComponent</title>
<polygon fill="#ffffb3" stroke="black" points="1679.94,-84.8 1574.06,-84.8 1574.06,-48.8 1679.94,-48.8 1679.94,-84.8"/>
<text text-anchor="middle" x="1627" y="-62.6" font-family="Times,serif" font-size="14.00">AppComponent</text>
</g>
<!-- AppComponent&#45;&gt;AppModule -->
<g id="edge2" class="edge">
<title>AppComponent&#45;&gt;AppModule</title>
<path fill="none" stroke="black" d="M1627,-85.02C1627,-105.17 1627,-134.8 1627,-134.8 1627,-134.8 1011.72,-134.8 1011.72,-134.8"/>
<polygon fill="black" stroke="black" points="1011.72,-131.3 1001.72,-134.8 1011.72,-138.3 1011.72,-131.3"/>
</g>
<!-- EditPerfilComponent -->
<g id="node3" class="node">
<title>EditPerfilComponent</title>
<polygon fill="#ffffb3" stroke="black" points="1555.77,-84.8 1420.23,-84.8 1420.23,-48.8 1555.77,-48.8 1555.77,-84.8"/>
<text text-anchor="middle" x="1488" y="-62.6" font-family="Times,serif" font-size="14.00">EditPerfilComponent</text>
</g>
<!-- EditPerfilComponent&#45;&gt;AppModule -->
<g id="edge3" class="edge">
<title>EditPerfilComponent&#45;&gt;AppModule</title>
<path fill="none" stroke="black" d="M1488,-85.02C1488,-103.63 1488,-129.8 1488,-129.8 1488,-129.8 1011.87,-129.8 1011.87,-129.8"/>
<polygon fill="black" stroke="black" points="1011.87,-126.3 1001.87,-129.8 1011.87,-133.3 1011.87,-126.3"/>
</g>
<!-- FooterComponent -->
<g id="node4" class="node">
<title>FooterComponent</title>
<polygon fill="#ffffb3" stroke="black" points="1401.88,-84.8 1284.12,-84.8 1284.12,-48.8 1401.88,-48.8 1401.88,-84.8"/>
<text text-anchor="middle" x="1343" y="-62.6" font-family="Times,serif" font-size="14.00">FooterComponent</text>
</g>
<!-- FooterComponent&#45;&gt;AppModule -->
<g id="edge4" class="edge">
<title>FooterComponent&#45;&gt;AppModule</title>
<path fill="none" stroke="black" d="M1343,-84.83C1343,-101.86 1343,-124.8 1343,-124.8 1343,-124.8 1011.72,-124.8 1011.72,-124.8"/>
<polygon fill="black" stroke="black" points="1011.72,-121.3 1001.72,-124.8 1011.72,-128.3 1011.72,-121.3"/>
</g>
<!-- HomePageComponent -->
<g id="node5" class="node">
<title>HomePageComponent</title>
<polygon fill="#ffffb3" stroke="black" points="1266.26,-84.8 1123.74,-84.8 1123.74,-48.8 1266.26,-48.8 1266.26,-84.8"/>
<text text-anchor="middle" x="1195" y="-62.6" font-family="Times,serif" font-size="14.00">HomePageComponent</text>
</g>
<!-- HomePageComponent&#45;&gt;AppModule -->
<g id="edge5" class="edge">
<title>HomePageComponent&#45;&gt;AppModule</title>
<path fill="none" stroke="black" d="M1195,-85.04C1195,-100.37 1195,-119.8 1195,-119.8 1195,-119.8 1011.74,-119.8 1011.74,-119.8"/>
<polygon fill="black" stroke="black" points="1011.74,-116.3 1001.74,-119.8 1011.74,-123.3 1011.74,-116.3"/>
</g>
<!-- LoginPageComponent -->
<g id="node6" class="node">
<title>LoginPageComponent</title>
<polygon fill="#ffffb3" stroke="black" points="1105.99,-84.8 964.01,-84.8 964.01,-48.8 1105.99,-48.8 1105.99,-84.8"/>
<text text-anchor="middle" x="1035" y="-62.6" font-family="Times,serif" font-size="14.00">LoginPageComponent</text>
</g>
<!-- LoginPageComponent&#45;&gt;AppModule -->
<g id="edge6" class="edge">
<title>LoginPageComponent&#45;&gt;AppModule</title>
<path fill="none" stroke="black" d="M982.92,-84.91C982.92,-84.91 982.92,-103.79 982.92,-103.79"/>
<polygon fill="black" stroke="black" points="979.42,-103.79 982.92,-113.79 986.42,-103.79 979.42,-103.79"/>
</g>
<!-- NavbarComponent -->
<g id="node7" class="node">
<title>NavbarComponent</title>
<polygon fill="#ffffb3" stroke="black" points="946.03,-84.8 823.97,-84.8 823.97,-48.8 946.03,-48.8 946.03,-84.8"/>
<text text-anchor="middle" x="885" y="-62.6" font-family="Times,serif" font-size="14.00">NavbarComponent</text>
</g>
<!-- NavbarComponent&#45;&gt;AppModule -->
<g id="edge7" class="edge">
<title>NavbarComponent&#45;&gt;AppModule</title>
<path fill="none" stroke="black" d="M932.22,-84.91C932.22,-84.91 932.22,-103.79 932.22,-103.79"/>
<polygon fill="black" stroke="black" points="928.72,-103.79 932.22,-113.79 935.72,-103.79 928.72,-103.79"/>
</g>
<!-- ProfilePageComponent -->
<g id="node8" class="node">
<title>ProfilePageComponent</title>
<polygon fill="#ffffb3" stroke="black" points="805.14,-84.8 658.86,-84.8 658.86,-48.8 805.14,-48.8 805.14,-84.8"/>
<text text-anchor="middle" x="732" y="-62.6" font-family="Times,serif" font-size="14.00">ProfilePageComponent</text>
</g>
<!-- ProfilePageComponent&#45;&gt;AppModule -->
<g id="edge8" class="edge">
<title>ProfilePageComponent&#45;&gt;AppModule</title>
<path fill="none" stroke="black" d="M732,-85.04C732,-100.37 732,-119.8 732,-119.8 732,-119.8 908.18,-119.8 908.18,-119.8"/>
<polygon fill="black" stroke="black" points="908.18,-123.3 918.18,-119.8 908.18,-116.3 908.18,-123.3"/>
</g>
<!-- SignupPageComponent -->
<g id="node9" class="node">
<title>SignupPageComponent</title>
<polygon fill="#ffffb3" stroke="black" points="641.22,-84.8 492.78,-84.8 492.78,-48.8 641.22,-48.8 641.22,-84.8"/>
<text text-anchor="middle" x="567" y="-62.6" font-family="Times,serif" font-size="14.00">SignupPageComponent</text>
</g>
<!-- SignupPageComponent&#45;&gt;AppModule -->
<g id="edge9" class="edge">
<title>SignupPageComponent&#45;&gt;AppModule</title>
<path fill="none" stroke="black" d="M567,-84.83C567,-101.86 567,-124.8 567,-124.8 567,-124.8 908.31,-124.8 908.31,-124.8"/>
<polygon fill="black" stroke="black" points="908.31,-128.3 918.31,-124.8 908.31,-121.3 908.31,-128.3"/>
</g>
<!-- SobreNosComponent -->
<g id="node10" class="node">
<title>SobreNosComponent</title>
<polygon fill="#ffffb3" stroke="black" points="475.04,-84.8 338.96,-84.8 338.96,-48.8 475.04,-48.8 475.04,-84.8"/>
<text text-anchor="middle" x="407" y="-62.6" font-family="Times,serif" font-size="14.00">SobreNosComponent</text>
</g>
<!-- SobreNosComponent&#45;&gt;AppModule -->
<g id="edge10" class="edge">
<title>SobreNosComponent&#45;&gt;AppModule</title>
<path fill="none" stroke="black" d="M407,-85.02C407,-103.63 407,-129.8 407,-129.8 407,-129.8 907.98,-129.8 907.98,-129.8"/>
<polygon fill="black" stroke="black" points="907.98,-133.3 917.98,-129.8 907.98,-126.3 907.98,-133.3"/>
</g>
<!-- TermoComponent -->
<g id="node11" class="node">
<title>TermoComponent</title>
<polygon fill="#ffffb3" stroke="black" points="320.15,-84.8 201.85,-84.8 201.85,-48.8 320.15,-48.8 320.15,-84.8"/>
<text text-anchor="middle" x="261" y="-62.6" font-family="Times,serif" font-size="14.00">TermoComponent</text>
</g>
<!-- TermoComponent&#45;&gt;AppModule -->
<g id="edge11" class="edge">
<title>TermoComponent&#45;&gt;AppModule</title>
<path fill="none" stroke="black" d="M261,-85.02C261,-105.17 261,-134.8 261,-134.8 261,-134.8 908.11,-134.8 908.11,-134.8"/>
<polygon fill="black" stroke="black" points="908.11,-138.3 918.11,-134.8 908.11,-131.3 908.11,-138.3"/>
</g>
<!-- VisitedProfileComponent -->
<g id="node12" class="node">
<title>VisitedProfileComponent</title>
<polygon fill="#ffffb3" stroke="black" points="183.87,-84.8 24.13,-84.8 24.13,-48.8 183.87,-48.8 183.87,-84.8"/>
<text text-anchor="middle" x="104" y="-62.6" font-family="Times,serif" font-size="14.00">VisitedProfileComponent</text>
</g>
<!-- VisitedProfileComponent&#45;&gt;AppModule -->
<g id="edge12" class="edge">
<title>VisitedProfileComponent&#45;&gt;AppModule</title>
<path fill="none" stroke="black" d="M77.36,-84.89C77.36,-107.93 77.36,-144.8 77.36,-144.8 77.36,-144.8 908.32,-144.8 908.32,-144.8"/>
<polygon fill="black" stroke="black" points="908.32,-148.3 918.32,-144.8 908.32,-141.3 908.32,-148.3"/>
</g>
<!-- VisitedProfileComponent&#45;&gt;AppModule -->
<g id="edge13" class="edge">
<title>VisitedProfileComponent&#45;&gt;AppModule</title>
<path fill="none" stroke="black" d="M130.64,-84.84C130.64,-106.46 130.64,-139.8 130.64,-139.8 130.64,-139.8 908.3,-139.8 908.3,-139.8"/>
<polygon fill="black" stroke="black" points="908.3,-143.3 918.3,-139.8 908.3,-136.3 908.3,-143.3"/>
</g>
<!-- AppComponent  -->
<g id="node15" class="node">
<title>AppComponent </title>
<polygon fill="#80b1d3" stroke="black" points="1014.44,-214.8 905.56,-214.8 905.56,-178.8 1014.44,-178.8 1014.44,-214.8"/>
<text text-anchor="middle" x="960" y="-192.6" font-family="Times,serif" font-size="14.00">AppComponent </text>
</g>
<!-- AppModule&#45;&gt;AppComponent  -->
<g id="edge15" class="edge">
<title>AppModule&#45;&gt;AppComponent </title>
<path fill="none" stroke="black" stroke-dasharray="1,5" d="M960,-149.91C960,-149.91 960,-168.79 960,-168.79"/>
<polygon fill="black" stroke="black" points="956.5,-168.79 960,-178.79 963.5,-168.79 956.5,-168.79"/>
</g>
<!-- AppRoutingModule -->
<g id="node14" class="node">
<title>AppRoutingModule</title>
<polygon fill="#8dd3c7" stroke="black" points="1960.27,-84.8 1957.27,-88.8 1936.27,-88.8 1933.27,-84.8 1831.73,-84.8 1831.73,-48.8 1960.27,-48.8 1960.27,-84.8"/>
<text text-anchor="middle" x="1896" y="-62.6" font-family="Times,serif" font-size="14.00">AppRoutingModule</text>
</g>
<!-- AppRoutingModule&#45;&gt;AppModule -->
<g id="edge14" class="edge">
<title>AppRoutingModule&#45;&gt;AppModule</title>
<path fill="none" stroke="black" d="M1896,-84.89C1896,-107.93 1896,-144.8 1896,-144.8 1896,-144.8 1011.73,-144.8 1011.73,-144.8"/>
<polygon fill="black" stroke="black" points="1011.73,-141.3 1001.73,-144.8 1011.73,-148.3 1011.73,-141.3"/>
</g>
</g>
</svg>
