<svg width="58" height="29" viewBox="0 0 58 29" fill="none" xmlns="http://www.w3.org/2000/svg">
<path d="M43.5 0H14.5C10.6544 0 6.96623 1.52767 4.24695 4.24695C1.52767 6.96623 0 10.6544 0 14.5C0 18.3456 1.52767 22.0338 4.24695 24.753C6.96623 27.4723 10.6544 29 14.5 29H43.5C47.3456 29 51.0338 27.4723 53.7531 24.753C56.4723 22.0338 58 18.3456 58 14.5C58 10.6544 56.4723 6.96623 53.7531 4.24695C51.0338 1.52767 47.3456 0 43.5 0ZM14.5 23.2C12.1926 23.2 9.97974 22.2834 8.34817 20.6518C6.71661 19.0203 5.8 16.8074 5.8 14.5C5.8 12.1926 6.71661 9.97974 8.34817 8.34817C9.97974 6.7166 12.1926 5.8 14.5 5.8C16.8074 5.8 19.0203 6.7166 20.6518 8.34817C22.2834 9.97974 23.2 12.1926 23.2 14.5C23.2 16.8074 22.2834 19.0203 20.6518 20.6518C19.0203 22.2834 16.8074 23.2 14.5 23.2Z" fill="#BAF2E9"/>
</svg>
