<svg width="28" height="28" viewBox="0 0 28 28" fill="none" xmlns="http://www.w3.org/2000/svg">
<path d="M21.07 22.3836L21.97 21.4896C26.134 21.6256 26.198 21.4796 26.381 21.0516L27.525 18.2666L27.61 18.0026L27.517 17.7716C27.468 17.6496 27.317 17.2856 24.717 14.8066V13.5026C27.717 10.6126 27.653 10.4646 27.482 10.0416L26.343 7.22758C26.172 6.80558 26.107 6.64058 21.973 6.75358L21.073 5.82358C21.1659 4.45368 21.1187 3.07788 20.932 1.71758L20.816 1.45458L17.842 0.154579C17.404 -0.0454207 17.25 -0.117421 14.442 2.94058L13.18 2.92158C10.289 -0.164421 10.152 -0.108421 9.719 0.0665792L6.954 1.18458C6.521 1.35958 6.368 1.42158 6.536 5.62158L5.643 6.51158C1.481 6.37558 1.417 6.52358 1.236 6.94958L0.0900002 9.73558L0 10.0026L0.0940001 10.2346C0.143 10.3546 0.288 10.7146 2.894 13.1966V14.4966C-0.106 17.3866 -0.041 17.5346 0.131 17.9586L1.269 20.7756C1.443 21.2066 1.505 21.3596 5.638 21.2516L6.538 22.1866C6.44471 23.5544 6.49061 24.9281 6.675 26.2866L6.791 26.5516L9.784 27.8596C10.219 28.0416 10.37 28.1066 13.17 25.0596L14.432 25.0756C17.327 28.1656 17.475 28.1056 17.898 27.9346L20.657 26.8196C21.093 26.6466 21.245 26.5856 21.07 22.3836ZM9.212 15.8596C8.86306 14.9476 8.79121 13.9529 9.00548 13.0003C9.21976 12.0477 9.7106 11.1796 10.4164 10.5049C11.1223 9.83016 12.0116 9.37894 12.9729 9.20782C13.9342 9.0367 14.9247 9.1533 15.82 9.54299C16.7153 9.93268 17.4755 10.5781 18.0054 11.3983C18.5352 12.2184 18.811 13.1768 18.7982 14.1532C18.7854 15.1295 18.4845 16.0803 17.9333 16.8863C17.3822 17.6923 16.6052 18.3175 15.7 18.6836C14.4649 19.1665 13.0888 19.1406 11.8729 18.6113C10.6569 18.082 9.70016 17.0926 9.212 15.8596Z" fill="#BAF2E9"/>
</svg>
