<svg width="25" height="25" viewBox="0 0 25 25" fill="none" xmlns="http://www.w3.org/2000/svg">
<path d="M17.7083 15.5833H16.5892L16.1925 15.2008C17.6288 13.5349 18.4182 11.408 18.4167 9.20834C18.4167 7.3871 17.8766 5.60677 16.8648 4.09246C15.853 2.57816 14.4148 1.3979 12.7322 0.700947C11.0496 0.00398982 9.19812 -0.178366 7.41188 0.17694C5.62564 0.532245 3.98487 1.40925 2.69706 2.69706C1.40925 3.98487 0.532245 5.62564 0.17694 7.41188C-0.178366 9.19812 0.00398982 11.0496 0.700947 12.7322C1.3979 14.4148 2.57816 15.853 4.09246 16.8648C5.60677 17.8766 7.3871 18.4167 9.20834 18.4167C11.4892 18.4167 13.5858 17.5808 15.2008 16.1925L15.5833 16.5892V17.7083L22.6667 24.7775L24.7775 22.6667L17.7083 15.5833ZM9.20834 15.5833C5.68084 15.5833 2.83334 12.7358 2.83334 9.20834C2.83334 5.68084 5.68084 2.83334 9.20834 2.83334C12.7358 2.83334 15.5833 5.68084 15.5833 9.20834C15.5833 12.7358 12.7358 15.5833 9.20834 15.5833Z" fill="#AFAFAF"/>
</svg>
