<svg width="27" height="27" viewBox="0 0 27 27" fill="none" xmlns="http://www.w3.org/2000/svg">
<path d="M12.0441 0.00544632C5.27777 0.742345 0 6.48715 0 13.4651C0 17.0548 1.42577 20.4974 3.96365 23.0357C6.50153 25.574 9.94364 27 13.5327 27C20.4946 27 26.2385 21.7364 26.9903 14.969C27.1256 13.7809 25.8175 12.8335 24.6747 13.5403C23.4472 14.3239 22.0318 14.7632 20.5764 14.8121C19.121 14.861 17.6792 14.5177 16.4019 13.8183C15.1247 13.1188 14.0588 12.0888 13.316 10.8361C12.5732 9.58347 12.1806 8.15412 12.1795 6.69769C12.1795 5.10358 12.6456 3.59971 13.4425 2.35149C14.1192 1.3439 13.3824 -0.0998249 12.0441 0.00544632Z" fill="#BAF2E9"/>
</svg>
